<?xml version="1.0" standalone="no"?>
<!DOCTYPE svg PUBLIC "-//W3C//DTD SVG 20010904//EN"
 "http://www.w3.org/TR/2001/REC-SVG-20010904/DTD/svg10.dtd">
<svg version="1.0" xmlns="http://www.w3.org/2000/svg"
 width="173.000000pt" height="166.000000pt" viewBox="0 0 173.000000 166.000000"
 preserveAspectRatio="xMidYMid meet">

<g transform="translate(0.000000,166.000000) scale(0.100000,-0.100000)"
fill="#000000" stroke="none">
<path d="M434 1340 c-57 -23 -83 -112 -48 -165 32 -50 134 -67 197 -33 24 13
57 68 57 96 0 36 -27 80 -60 97 -31 16 -112 19 -146 5z"/>
<path d="M1205 1337 c-64 -21 -97 -42 -141 -89 -61 -63 -86 -120 -92 -205 l-5
-73 -73 0 -74 0 0 -65 0 -65 76 0 75 0 -3 -239 c-2 -132 -7 -243 -11 -247 -4
-5 -37 -10 -72 -12 l-65 -4 0 -59 0 -59 260 0 260 0 0 59 0 58 -78 5 c-43 2
-84 8 -90 12 -9 5 -12 72 -12 247 l0 239 100 0 100 0 0 65 0 65 -101 0 -101 0
4 90 c4 114 14 128 77 100 76 -35 174 -20 201 29 24 46 5 108 -42 136 -39 23
-141 29 -193 12z"/>
<path d="M431 964 c-85 -24 -155 -45 -157 -47 -1 -1 2 -23 8 -49 l11 -47 51
-3 51 -3 0 -235 0 -235 -52 -3 -53 -3 0 -60 0 -59 215 0 215 0 0 60 0 60 -60
0 -60 0 0 335 c0 184 -3 335 -7 334 -5 0 -77 -21 -162 -45z"/>
</g>
</svg>
